nColumns=19
nRows=101
DataType=double
version=3
OpenSimVersion=4.1
endheader
time	ground_force_calcn_r_vx	ground_force_calcn_r_vy	ground_force_calcn_r_vz	ground_force_calcn_r_px	ground_force_calcn_r_py	ground_force_calcn_r_pz	ground_force_calcn_r_mx	ground_force_calcn_r_my	ground_force_calcn_r_mz	ground_force_calcn_l_vx	ground_force_calcn_l_vy	ground_force_calcn_l_vz	ground_force_calcn_l_px	ground_force_calcn_l_py	ground_force_calcn_l_pz	ground_force_calcn_l_mx	ground_force_calcn_l_my	ground_force_calcn_l_mz
0.025	0	0	0	0	0	0	0	0	0	252.31	1343.41	-91.8455	0.958837	0	-0.316751	4.08267	21.7379	-1.48617
0.033333	0	0	0	0	0	0	0	0	0	250.439	1090.79	-79.8264	0.933839	0	-0.310829	3.6769	16.0148	-1.172
0.041667	0	0	0	0	0	0	0	0	0	245.177	822.228	-65.557	0.900162	0	-0.30541	3.03426	10.1757	-0.811322
0.05	0	0	0	0	0	0	0	0	0	219.09	575.642	-50.4078	0.866198	0	-0.30219	1.89554	4.98038	-0.436122
0.058333	0	0	0	0	0	0	0	0	0	170.074	373.933	-36.0046	0.841607	0	-0.301406	0.448948	0.987082	-0.0950422
0.066667	0	0	0	0	0	0	0	0	0	114.605	223.895	-24.3286	0.8311	0	-0.30302	-0.861904	-1.68383	0.182966
0.075	0	0	0	0	0	0	0	0	0	67.8585	121.05	-16.4252	0.828488	0	-0.308392	-1.74967	-3.12117	0.42351
0.083333	0	0	0	0	0	0	0	0	0	35.3094	58.1737	-11.28	0.810212	0	-0.317541	-2.11727	-3.48828	0.676384
0.091667	0	0	0	0	0	0	0	0	0	14.0313	25.2056	-6.97097	0.765624	0	-0.311883	-1.84741	-3.31866	0.917823
0.1	0	0	0	0	0	0	0	0	0	2.34996	10.9278	-2.94703	0.800422	0	-0.173333	-0.68562	-3.18828	0.859818
0.108333	0	0	0	0	0	0	0	0	0	0	0	0	0	0	0	0	0	0
0.116667	0	0	0	0	0	0	0	0	0	0	0	0	0	0	0	0	0	0
0.125	0	0	0	0	0	0	0	0	0	0	0	0	0	0	0	0	0	0
0.133333	0	0	0	0	0	0	0	0	0	0	0	0	0	0	0	0	0	0
0.141667	0	0	0	0	0	0	0	0	0	0	0	0	0	0	0	0	0	0
0.15	0	0	0	0	0	0	0	0	0	0	0	0	0	0	0	0	0	0
0.158333	0	0	0	0	0	0	0	0	0	0	0	0	0	0	0	0	0	0
0.166667	0	0	0	0	0	0	0	0	0	0	0	0	0	0	0	0	0	0
0.175	0	0	0	0	0	0	0	0	0	0	0	0	0	0	0	0	0	0
0.183333	0	0	0	0	0	0	0	0	0	0	0	0	0	0	0	0	0	0
0.191667	0.57768	12.1211	-3.72001	0.970813	0	-0.176671	-0.201822	-4.2347	1.29965	0	0	0	0	0	0	0	0	0
0.2	-6.29909	24.5442	-9.68017	1.22326	0	-0.199344	0.652999	-2.54438	1.0035	0	0	0	0	0	0	0	0	0
0.208333	-25.5072	64.8473	-20.0239	1.3718	0	-0.245515	0.165607	-0.421026	0.130007	0	0	0	0	0	0	0	0	0
0.216667	-68.8827	170.928	-34.6216	1.40297	0	-0.257933	-0.876172	2.17417	-0.44038	0	0	0	0	0	0	0	0	0
0.225	-136.306	366.913	-50.8223	1.40376	0	-0.260154	-1.78852	4.81441	-0.666858	0	0	0	0	0	0	0	0	0
0.233333	-191.153	627.194	-62.9859	1.3898	0	-0.261921	-2.07926	6.82227	-0.685126	0	0	0	0	0	0	0	0	0
0.241667	-199.821	915.965	-64.299	1.35677	0	-0.265163	-1.6321	7.48144	-0.525183	0	0	0	0	0	0	0	0	0
0.25	-193.701	1209.48	-49.8685	1.31432	0	-0.269771	-1.00855	6.29744	-0.259652	0	0	0	0	0	0	0	0	0
0.258333	-210.098	1465.01	-20.5846	1.27766	0	-0.274078	-0.520708	3.63089	-0.0510169	0	0	0	0	0	0	0	0	0
0.266667	-235.715	1655.01	13.6273	1.24793	0	-0.277069	-0.055905	0.392521	0.00323201	0	0	0	0	0	0	0	0	0
0.275	-238.817	1790.2	37.9351	1.21829	0	-0.279339	0.330526	-2.47766	-0.0525028	0	0	0	0	0	0	0	0	0
0.283333	-201.21	1890.04	44.4488	1.1843	0	-0.281404	0.461429	-4.33439	-0.101933	0	0	0	0	0	0	0	0	0
0.291667	-138.202	1956.43	38.6833	1.14841	0	-0.282944	0.349348	-4.94549	-0.0977841	0	0	0	0	0	0	0	0	0
0.3	-73.5107	1980.84	32.0747	1.11385	0	-0.283405	0.16697	-4.49921	-0.0728534	0	0	0	0	0	0	0	0	0
0.308333	-7.96003	1956.53	29.9636	1.07966	0	-0.282962	0.0140839	-3.46174	-0.0530154	0	0	0	0	0	0	0	0	0
0.316667	65.3017	1876.23	29.5574	1.0443	0	-0.282717	-0.0812073	-2.33323	-0.0367567	0	0	0	0	0	0	0	0	0
0.325	146.518	1736.52	27.7766	1.00729	0	-0.2834	-0.125157	-1.48335	-0.023727	0	0	0	0	0	0	0	0	0
0.333333	222.198	1545.94	26.1577	0.969575	0	-0.28456	-0.15537	-1.08099	-0.0182906	0	0	0	0	0	0	0	0	0
0.341667	273.489	1320.43	27.0122	0.93326	0	-0.285183	-0.225347	-1.088	-0.0222573	0	0	0	0	0	0	0	0	0
0.35	292.386	1073.26	28.5519	0.899297	0	-0.284989	-0.359232	-1.31863	-0.0350795	0	0	0	0	0	0	0	0	0
0.358333	278.006	817.352	26.6218	0.867757	0	-0.284598	-0.528417	-1.55357	-0.0506011	0	0	0	0	0	0	0	0	0
0.366667	237.37	574.252	20.0432	0.838228	0	-0.284432	-0.679174	-1.64307	-0.0573484	0	0	0	0	0	0	0	0	0
0.375	181.805	366.058	11.9093	0.811901	0	-0.284129	-0.768189	-1.54672	-0.0503209	0	0	0	0	0	0	0	0	0
0.383333	124.379	207.333	5.82724	0.792045	0	-0.282291	-0.781657	-1.30298	-0.0366212	0	0	0	0	0	0	0	0	0
0.391667	75.1941	103.35	2.63855	0.78737	0	-0.275737	-0.721964	-0.992299	-0.0253336	0	0	0	0	0	0	0	0	0
0.4	38.6726	45.7964	1.08246	0.827984	0	-0.260807	-0.604909	-0.716337	-0.0169317	0	0	0	0	0	0	0	0	0
0.408333	15.8494	19.1059	0.131922	0.960568	0	-0.22938	-0.465721	-0.561411	-0.00387642	0	0	0	0	0	0	0	0	0
0.416667	0	0	0	0	0	0	0	0	0	0	0	0	0	0	0	0	0	0
0.425	0	0	0	0	0	0	0	0	0	0	0	0	0	0	0	0	0	0
0.433333	0	0	0	0	0	0	0	0	0	0	0	0	0	0	0	0	0	0
0.441667	0	0	0	0	0	0	0	0	0	0	0	0	0	0	0	0	0	0
0.45	0	0	0	0	0	0	0	0	0	0	0	0	0	0	0	0	0	0
0.458333	0	0	0	0	0	0	0	0	0	0	0	0	0	0	0	0	0	0
0.466667	0	0	0	0	0	0	0	0	0	0	0	0	0	0	0	0	0	0
0.475	0	0	0	0	0	0	0	0	0	0	0	0	0	0	0	0	0	0
0.483333	0	0	0	0	0	0	0	0	0	0	0	0	0	0	0	0	0	0
0.491667	0	0	0	0	0	0	0	0	0	0	0	0	0	0	0	0	0	0
0.5	0	0	0	0	0	0	0	0	0	0	0	0	0	0	0	0	0	0
0.508333	0	0	0	0	0	0	0	0	0	0	0	0	0	0	0	0	0	0
0.516667	0	0	0	0	0	0	0	0	0	0	0	0	0	0	0	0	0	0
0.525	0	0	0	0	0	0	0	0	0	-0.0816753	15.5459	-0.659121	1.33646	0	-0.303924	-0.013959	2.65691	-0.112649
0.533333	0	0	0	0	0	0	0	0	0	-12.5152	45.7681	-0.0228609	1.36258	0	-0.361501	-0.325612	1.19077	-0.00059478
0.541667	0	0	0	0	0	0	0	0	0	-44.4309	130.104	5.42589	1.37309	0	-0.363183	0.271014	-0.793591	-0.0330961
0.55	0	0	0	0	0	0	0	0	0	-103.148	301.436	19.0763	1.37529	0	-0.359539	1.03586	-3.02716	-0.191573
0.558333	0	0	0	0	0	0	0	0	0	-168.519	549.511	40.0387	1.36856	0	-0.353858	1.53966	-5.02056	-0.365811
0.566667	0	0	0	0	0	0	0	0	0	-199.946	830.043	58.6693	1.34475	0	-0.348203	1.46751	-6.09213	-0.430605
0.575	0	0	0	0	0	0	0	0	0	-197.743	1122.18	60.5664	1.30398	0	-0.343539	0.973352	-5.52371	-0.298126
0.583333	0	0	0	0	0	0	0	0	0	-196.747	1405.43	39.4461	1.26209	0	-0.339798	0.435916	-3.11389	-0.0873974
0.591667	0	0	0	0	0	0	0	0	0	-198.791	1644.52	3.89749	1.22744	0	-0.336168	-0.0712731	0.589613	0.00139738
0.6	0	0	0	0	0	0	0	0	0	-182.692	1823.87	-30.2963	1.19552	0	-0.332721	-0.466352	4.65573	-0.0773362
0.608333	0	0	0	0	0	0	0	0	0	-140.183	1945.32	-51.6097	1.16205	0	-0.330064	-0.587409	8.15146	-0.216259
0.616667	0	0	0	0	0	0	0	0	0	-82.9044	2009.63	-57.4559	1.12847	0	-0.328335	-0.430192	10.428	-0.298139
0.625	0	0	0	0	0	0	0	0	0	-27.1751	2016.72	-52.6081	1.09743	0	-0.327336	-0.152262	11.2997	-0.294764
0.633333	0	0	0	0	0	0	0	0	0	26.4343	1971.28	-44.875	1.06805	0	-0.326573	0.147798	11.0218	-0.250903
0.641667	0	0	0	0	0	0	0	0	0	79.714	1877.37	-40.207	1.03875	0	-0.325668	0.427845	10.0763	-0.215801
0.65	0	0	0	0	0	0	0	0	0	124.958	1733.52	-39.8589	1.01011	0	-0.32441	0.644098	8.93542	-0.205453
0.658333	0	0	0	0	0	0	0	0	0	158.813	1539.61	-41.634	0.982465	0	-0.322529	0.813645	7.8879	-0.213303
0.666667	0	0	0	0	0	0	0	0	0	185.458	1301.87	-43.2047	0.953968	0	-0.320142	0.993861	6.97666	-0.231533
0.675	0	0	0	0	0	0	0	0	0	207.989	1033.27	-43.4063	0.921089	0	-0.317803	1.21816	6.0517	-0.254224
0.683333	0	0	0	0	0	0	0	0	0	215.55	759.006	-41.1758	0.883181	0	-0.315786	1.39817	4.9233	-0.267088
0.691667	0	0	0	0	0	0	0	0	0	193.234	513.825	-35.2581	0.846482	0	-0.313969	1.33862	3.55951	-0.24425
0.7	0	0	0	0	0	0	0	0	0	145.195	321.07	-25.9761	0.822286	0	-0.311852	0.954759	2.11126	-0.170811
0.708333	0	0	0	0	0	0	0	0	0	91.031	184.255	-16.3323	0.821756	0	-0.308064	0.36759	0.744035	-0.065951
0.716667	0	0	0	0	0	0	0	0	0	49.1103	94.7391	-9.70051	0.83687	0	-0.303655	-0.22181	-0.427895	0.0438129
0.725	0	0	0	0	0	0	0	0	0	24.9067	41.4351	-6.52006	0.828605	0	-0.308777	-0.713193	-1.18648	0.186699
0.733333	0	0	0	0	0	0	0	0	0	12.2292	15.0908	-4.48596	0.791648	0	-0.333565	-1.02855	-1.26922	0.377296
0.741667	0	0	0	0	0	0	0	0	0	0	0	0	0	0	0	0	0	0
0.75	0	0	0	0	0	0	0	0	0	0	0	0	0	0	0	0	0	0
0.758333	0	0	0	0	0	0	0	0	0	0	0	0	0	0	0	0	0	0
0.766667	0	0	0	0	0	0	0	0	0	0	0	0	0	0	0	0	0	0
0.775	0	0	0	0	0	0	0	0	0	0	0	0	0	0	0	0	0	0
0.783333	0	0	0	0	0	0	0	0	0	0	0	0	0	0	0	0	0	0
0.791667	0	0	0	0	0	0	0	0	0	0	0	0	0	0	0	0	0	0
0.8	0	0	0	0	0	0	0	0	0	0	0	0	0	0	0	0	0	0
0.808333	0	0	0	0	0	0	0	0	0	0	0	0	0	0	0	0	0	0
0.816667	0	0	0	0	0	0	0	0	0	0	0	0	0	0	0	0	0	0
0.825	0	0	0	0	0	0	0	0	0	0	0	0	0	0	0	0	0	0
0.833333	0	0	0	0	0	0	0	0	0	0	0	0	0	0	0	0	0	0
0.841667	0	0	0	0	0	0	0	0	0	0	0	0	0	0	0	0	0	0
0.85	-4.35697	19.0019	-8.07936	1.33545	0	-0.188122	0.479834	-2.09268	0.88978	0	0	0	0	0	0	0	0	0
0.858333	-22.0878	58.8273	-17.9069	1.38509	0	-0.269835	-0.0135738	0.0361517	-0.0110045	0	0	0	0	0	0	0	0	0
